PathFileType	4	(X/Y/Z)	C:\Users\°ÂÌØÂü\Desktop\20210112\bx_n_10_902-Unnamed.trc
DataRate	CameraRate	NumFrames	NumMarkers	Units	OrigDataRate	OrigDataStartFrame	OrigNumFrames
50.00	50.00	       9	0	mm	50.00	61	       484
Frame#	Time	
		

61	1.200	-155.53978	90.68255	1432.67664	-392.93713	258.48111	1249.37561	-728.71173	212.14401	817.29199	-737.31207	237.49910	1024.75720	-732.91016	-7.67962	806.82202				-822.54193	256.77496	629.61450	-809.85022	251.05849	567.38989	-832.96753	263.85202	488.67596	-517.67950	-72.98924	142.99757	-747.81122	-7.29172	1002.26611	-596.79718	26.14287	167.04311	-671.57275	51.95119	162.23952	-717.86835	157.90958	221.22107	-796.56653	182.57626	181.44229	-770.64642	231.64594	202.41090	-591.99823	219.05983	173.71465	-882.48633	296.01816	144.59039	-555.81757	254.36948	163.42120	-658.53931	299.29315	157.32129	-621.67987	306.98746	158.50366	-527.90729	303.98984	146.50862	-384.22260	-80.08597	1240.85229	-921.97406	98.21657	1093.29114	-792.40131	39.35856	172.99388	-823.89178	-44.02176	476.75931	-548.39734	-27.18630	162.73596	-761.21356	-20.69816	203.94887	-875.88751	-78.54328	141.29303	-824.27435	-71.68879	865.04376	-818.93097	-62.42296	748.13300	-802.42133	-32.18946	610.86224	-799.65912	-29.56354	562.68762	-674.66150	174.78514	162.24117	-606.96649	-75.70090	157.31793	-648.66449	-68.53446	161.05771	-748.74493	208.68231	537.52423	-722.60071	67.58572	219.79379	-833.75464	292.79843	868.04694	-814.88373	283.42291	733.39026				-774.85413	146.61450	572.89844	-737.70544	20.78278	525.46191	
62	1.220	-149.46857	90.73411	1411.42566	-387.20944	257.16760	1231.43628	-733.38342	211.63269	817.00934	-741.45673	237.44566	1021.83667	-737.57935	-7.97178	806.46136				-825.38324	257.08282	629.10974	-812.31885	251.06544	566.85602	-835.44910	264.19867	488.24460	-517.65936	-73.06068	143.06224	-752.21814	-7.66538	998.77399	-596.94458	26.15779	166.93394	-671.35437	52.50203	162.92879	-718.55646	158.13704	221.85606	-796.63812	182.66054	181.43979	-770.83569	231.80669	202.42491	-592.34827	219.12149	173.49052	-882.56592	295.90515	144.56755	-556.24017	254.53145	163.22307	-658.56921	299.45190	157.23676	-621.76074	307.10474	158.50688	-527.58508	303.62787	146.34938	-378.96136	-79.89206	1222.98181	-925.28821	97.99744	1094.47534	-791.87433	39.06587	172.39668	-825.55573	-44.82396	476.39651	-548.23145	-27.10170	162.46732	-761.24634	-20.85692	203.91200	-875.87097	-78.64214	141.18979	-830.12012	-71.26501	863.72174	-822.65216	-63.09943	747.60333	-805.24762	-32.26800	610.46832	-801.71460	-30.04779	562.65729	-674.80066	174.87505	162.10135	-606.61963	-75.54143	156.87991	-648.55103	-68.40741	161.06128	-751.19012	208.71771	537.65308	-723.03967	67.30258	219.61189	-837.71271	293.32263	867.68524	-818.27631	283.85300	733.04327				-777.80121	146.92647	572.38495	-739.55286	20.84762	525.76221	
63	1.240	-143.82806	90.77749	1390.35645	-381.51462	256.05457	1214.03101	-737.76849	211.73860	816.67218	-745.17157	237.01241	1018.53717	-741.70789	-7.86733	806.29712				-828.15015	257.32007	628.54791	-815.03021	251.40230	566.50323	-837.19824	264.22653	487.05304	-517.77606	-73.10438	143.01840	-756.27167	-7.95219	995.55798	-596.82275	26.14117	166.91913	-671.73846	51.67496	162.58528	-718.35938	158.37498	221.91298	-796.83148	182.80550	181.19519	-771.05219	231.59538	201.81351	-592.29559	219.05107	173.57245	-882.56860	296.08133	144.79449	-555.87152	254.24330	163.60072	-658.44019	299.25577	157.09052	-621.76074	307.10474	158.50688	-528.04291	303.77905	146.21043	-373.94055	-79.37714	1205.59753	-927.30951	97.85253	1094.96704	-792.38794	38.46067	172.40288	-826.90546	-45.18115	475.73639	-548.42310	-26.93915	162.49236	-761.41254	-20.91449	203.58499	-875.87097	-78.64214	141.18979	-834.40698	-71.56323	862.73938	-825.95453	-63.52208	746.94556	-807.68451	-32.72680	610.09021	-803.98981	-30.31237	561.59644	-675.25391	174.93347	162.18291	-606.62506	-75.66795	157.33102	-648.51898	-68.41774	160.87915	-753.35419	208.80696	537.63556	-723.17120	67.13185	219.95544	-842.16980	293.29324	866.92383	-821.95087	283.63336	732.17731				-780.59467	147.09731	572.22546	-742.28772	20.78270	525.26672	
64	1.260	-138.98061	91.25046	1369.31860				-742.28516	211.41147	815.66101	-748.32831	237.16603	1015.17206	-745.20239	-7.71879	806.02380				-830.78589	258.02679	628.19501	-817.29889	251.18663	565.39722	-839.23755	264.88864	486.82584	-517.65936	-73.06068	143.06224	-759.90082	-8.57236	992.62433	-597.08130	26.23934	166.87357	-671.51404	52.00937	162.82199	-718.98718	158.47475	221.95131	-797.05377	183.72742	180.44737	-771.22656	231.53441	201.68794	-592.36255	219.03046	173.66418	-882.62134	296.14355	144.72720	-555.68665	254.01178	163.46378	-658.48138	299.32080	157.24838	-621.67987	306.98746	158.50366	-527.97821	303.95071	146.25775	-369.13705	-78.89352	1187.77295	-928.89227	97.35880	1095.52332	-792.33429	38.33249	172.29202	-828.75031	-45.04901	475.00070	-548.38318	-26.99652	162.15593	-761.35394	-21.08697	203.27164	-875.95648	-78.79716	141.44162	-838.03857	-72.68092	862.58966	-829.30981	-63.64378	745.81342	-810.19720	-33.14224	609.58002	-806.39215	-31.10791	561.79309	-675.30310	175.02071	162.48492	-606.51947	-75.81350	157.32140	-648.41577	-68.42521	160.86082	-755.80133	209.14243	537.42969	-724.04041	66.19906	219.35847	-846.49188	293.36612	866.32532	-825.22314	284.75885	731.69647				-783.17511	147.11395	571.79297	-744.51636	20.86993	524.93292	
65	1.280	-134.59302	91.22388	1348.33093				-745.85468	211.22760	815.38910	-751.81372	237.02267	1012.52002	-749.21863	-7.44958	805.32001				-833.37714	258.07220	627.12048	-819.82501	251.73360	565.10425	-841.09338	265.40988	486.12354	-517.72290	-73.09461	142.98589	-763.61072	-8.29994	989.15472	-596.69757	25.85130	167.29887	-671.54205	52.16440	162.63550	-719.47803	159.21605	221.60957	-797.42047	184.01466	180.47571	-771.40302	232.04422	201.10689	-592.40668	219.03337	173.86989	-882.59039	295.95660	144.61356	-555.90698	253.89682	163.39043	-658.47174	299.49457	157.21165	-621.59137	306.97153	158.58910	-528.00604	303.86810	146.28801	-365.08557	-78.22400	1170.05029	-930.31427	96.76279	1095.83142	-792.35944	38.25966	172.22908	-831.02362	-45.54272	474.60895	-548.30121	-26.82298	162.64182	-761.59747	-21.15168	202.81041	-875.88751	-78.54328	141.29303	-841.21643	-72.21034	861.43646	-832.66016	-64.27607	745.55420	-812.55371	-32.99237	609.06268	-809.09265	-30.87444	561.14813	-675.09894	175.59102	162.43887	-606.63062	-75.78879	157.27049	-648.48651	-68.58950	161.03027	-758.18372	209.24811	536.85455	-724.05878	66.23998	219.42589	-850.92896	293.67932	865.70959	-828.50519	285.00464	730.76367				-786.19263	147.35472	571.13684	-746.79663	20.53867	524.51862	
66	1.300	-130.56129	91.53381	1327.81384				-750.05231	210.69595	814.73663	-754.56683	236.47533	1009.05835	-752.86969	-7.28262	805.00226				-835.85547	258.60062	626.98584	-821.89954	252.15186	564.94855	-842.41858	265.70560	485.69757	-517.85101	-73.21296	142.96202	-767.07709	-8.66561	985.71960	-596.64471	25.79943	167.16208	-671.54205	52.16440	162.63550	-719.76373	159.45219	221.89865	-797.65564	184.45650	180.45959	-771.63306	232.33290	201.33644	-592.54346	219.14319	173.79306	-882.58673	296.02298	144.71890	-556.02832	253.78455	163.23079	-658.64227	299.50201	156.88231	-621.68164	306.87759	158.49384	-528.07642	303.81195	146.19534	-360.82150	-77.68275	1153.47034	-931.56787	96.83237	1096.06848	-792.38159	38.33477	172.12688	-832.98163	-45.08747	473.63351	-548.44269	-26.96989	162.73427	-761.76031	-20.98383	202.95726	-875.85034	-78.68372	141.27127	-845.51245	-72.40351	860.28564	-836.03131	-64.60769	745.13397	-815.39563	-33.37621	608.56635	-811.57605	-31.36176	560.91107	-675.44690	175.55446	162.83539	-606.70374	-75.99681	157.35841	-648.61993	-68.80972	160.92346	-760.49249	209.11514	536.87000	-724.33954	66.19289	219.62869	-854.14063	293.85046	865.72284	-831.64374	285.51538	730.62280				-788.49640	147.42859	571.01569	-748.85077	19.74777	524.66699	
67	1.320	-127.33321	91.50318	1307.81897				-752.98633	210.46124	813.99927	-758.93756	234.72536	1005.56641	-756.55060	-7.47852	804.80524				-838.17303	258.10764	626.35291	-823.10840	251.70996	564.24921	-844.15668	265.53409	485.25830	-517.80121	-73.31594	143.08565	-770.55194	-9.11247	983.05585	-596.64044	25.72787	167.25040	-671.31628	52.63966	163.12062	-719.74121	159.90770	222.76001	-797.75629	184.55998	180.48961	-771.72522	232.42564	201.61761	-592.57703	219.17365	173.75444	-882.59637	296.24707	144.81157	-556.15613	253.88474	163.35564	-658.50793	299.56812	157.12001	-621.45514	306.82535	158.37526	-528.30756	303.76437	146.05043	-357.18192	-76.52593	1136.06958	-932.66223	96.03760	1096.56641	-792.31458	38.71251	172.21042	-834.42932	-44.76607	473.47452	-548.34369	-26.94211	162.92390	-761.78503	-20.14025	202.13254	-875.87335	-78.57735	141.34627	-849.00635	-73.11533	860.08112	-839.56952	-64.49387	743.85986	-817.81580	-33.47614	608.36835	-813.00037	-30.75980	560.19073	-675.56256	175.28923	162.50031	-606.79608	-75.83803	157.32367	-648.61548	-68.44268	160.78610	-761.84888	208.99570	537.07538	-724.27771	66.43355	219.29704	-857.92828	293.52289	865.25482	-834.67560	285.59091	729.99957				-790.97906	147.31136	570.61127	-750.26837	19.51269	524.84039	
68	1.340	-124.50934	91.68771	1288.36206				-755.96014	210.19290	814.24213	-761.46686	234.08531	1002.25189	-759.86432	-8.17816	804.39117				-840.30188	258.35791	626.27130	-825.44116	251.93254	564.40906	-845.70300	265.70490	484.88565	-517.95789	-73.42136	142.99356				-596.58032	25.88057	167.25174				-720.23938	159.53026	222.55002	-798.09558	184.29472	180.51302	-771.58301	232.50142	201.32013	-592.75659	219.23599	173.55911	-882.59686	296.09210	144.68120	-556.20355	253.88170	163.40059	-658.47632	299.32928	156.99887	-621.79407	306.60144	158.17764	-527.77448	303.83029	146.51163	-353.08032	-75.96664	1119.89844	-934.72314	96.05381	1096.74792	-791.58044	39.50165	172.02254	-835.34149	-44.09478	472.79553	-548.24719	-26.88798	162.75209	-761.74951	-20.51561	202.66599	-875.85034	-78.68372	141.27127	-853.47095	-74.12195	859.13672	-842.66504	-65.46923	743.26434	-818.91016	-33.23984	607.97742	-814.68671	-30.73646	559.87378	-675.52722	175.18481	162.49049	-606.96649	-75.70090	157.31793	-648.77832	-68.40486	160.94087	-763.60602	209.01993	536.89063	-723.87164	67.34112	219.87015	-861.09076	293.37875	864.83203	-836.58948	285.34604	729.39771				-792.06659	147.34120	570.98376	-751.28119	19.21384	524.93921	
69	1.360	-122.09982	91.31750	1270.21045	-751.39026	18.62560	524.89752	-758.68402	210.31490	813.42889	-764.10425	233.62820	999.49866	-762.76465	-8.10772	803.80298				-842.37262	258.35794	625.57867	-827.09802	251.83757	563.57178	-846.91516	265.80521	484.89929	-517.82513	-73.21316	143.47018				-597.09357	25.36365	167.02013				-720.41779	159.59915	222.55650	-798.14960	184.39929	180.59297	-771.75018	232.47723	201.21924	-593.12976	219.16499	173.71068	-882.56348	296.01257	144.69696	-556.41278	253.72565	163.18602	-658.39862	299.23593	157.32292	-621.79407	306.60144	158.17764	-528.00604	303.86810	146.28801	-349.30685	-75.79501	1104.60205	-935.76874	95.51089	1096.69446	-791.73962	39.50535	171.98788	-835.86951	-44.29588	472.75598	-548.24414	-27.12321	162.98186	-761.67712	-19.94773	202.11212	-875.85034	-78.68372	141.27127	-855.58582	-74.07425	857.87799	-845.00220	-66.35242	742.72235	-820.20306	-33.51362	607.68500	-814.86267	-30.66439	559.60590	-675.70905	175.39565	162.36409	-606.91101	-75.73678	157.28516	-648.71252	-68.36835	160.86804	-765.24860	209.19287	536.46747	-723.74841	67.25999	219.72844	-864.40973	293.16116	864.16113	-839.52185	285.37805	728.94818				-793.92578	147.18759	570.44116	
